<svg width="3" height="13" viewBox="0 0 3 13" fill="none" xmlns="http://www.w3.org/2000/svg">
<g id="Group 115">
<path id="Vector" d="M2.50098 6.25C2.50098 5.55964 1.94133 5 1.25098 5C0.56062 5 0.000976478 5.55964 0.000976508 6.25C0.000976538 6.94036 0.560621 7.5 1.25098 7.5C1.94133 7.5 2.50098 6.94036 2.50098 6.25Z" fill="#4A4159"/>
<path id="Vector_2" d="M2.5 1.25C2.5 0.559644 1.94036 -8.48157e-08 1.25 -5.46392e-08C0.559644 -2.44628e-08 -8.48157e-08 0.559644 -5.46392e-08 1.25C-2.44628e-08 1.94036 0.559644 2.5 1.25 2.5C1.94036 2.5 2.5 1.94036 2.5 1.25Z" fill="#4A4159"/>
<path id="Vector_3" d="M2.50098 11.25C2.50098 10.5596 1.94133 10 1.25098 10C0.56062 10 0.000976478 10.5596 0.000976508 11.25C0.000976538 11.9404 0.560621 12.5 1.25098 12.5C1.94133 12.5 2.50098 11.9404 2.50098 11.25Z" fill="#4A4159"/>
</g>
</svg>
