<svg width="32" height="32" viewBox="0 0 32 32" fill="none" xmlns="http://www.w3.org/2000/svg">
<g id="Delete">
<rect width="32" height="32" rx="16" fill="#E83F40"/>
<path id="Vector" d="M22.0275 13.4296L21.7334 22.2045C21.7084 22.956 21.3873 23.6683 20.8383 24.1903C20.2893 24.7122 19.5556 25.0026 18.793 25H13.2062C12.4441 25.0027 11.7109 24.7126 11.162 24.1913C10.6131 23.67 10.2916 22.9584 10.2658 22.2074L9.9718 13.4296C9.96537 13.2373 10.0366 13.0505 10.17 12.91C10.3033 12.7696 10.4877 12.6872 10.6826 12.6809C10.8776 12.6745 11.0671 12.7448 11.2095 12.8762C11.352 13.0077 11.4356 13.1895 11.442 13.3817L11.736 22.1588C11.7507 22.5335 11.912 22.8881 12.1862 23.1479C12.4603 23.4078 12.8259 23.5529 13.2062 23.5526H18.793C19.1738 23.5528 19.5399 23.4074 19.8141 23.1469C20.0883 22.8864 20.2493 22.5311 20.2632 22.1559L20.5573 13.3817C20.5637 13.1895 20.6473 13.0077 20.7897 12.8762C20.9321 12.7448 21.1217 12.6745 21.3166 12.6809C21.5116 12.6872 21.696 12.7696 21.8293 12.91C21.9626 13.0505 22.0339 13.2373 22.0275 13.4296ZM23 10.5094C23 10.7016 22.9226 10.886 22.7847 11.0219C22.6468 11.1578 22.4599 11.2342 22.2649 11.2342H9.7351C9.54014 11.2342 9.35316 11.1578 9.21531 11.0219C9.07745 10.886 9 10.7016 9 10.5094C9 10.3172 9.07745 10.1328 9.21531 9.99691C9.35316 9.86098 9.54014 9.78462 9.7351 9.78462H12.0139C12.2468 9.78524 12.4716 9.7004 12.6446 9.5466C12.8176 9.3928 12.9263 9.18106 12.9497 8.95257C13.0039 8.41658 13.2586 7.91971 13.6641 7.55875C14.0696 7.19779 14.5969 6.99861 15.1432 7.00001H16.856C17.4023 6.99861 17.9296 7.19779 18.3351 7.55875C18.7406 7.91971 18.9953 8.41658 19.0496 8.95257C19.0729 9.18106 19.1817 9.3928 19.3546 9.5466C19.5276 9.7004 19.7524 9.78524 19.9854 9.78462H22.2642C22.4591 9.78462 22.6461 9.86098 22.784 9.99691C22.9218 10.1328 22.9993 10.3172 22.9993 10.5094H23ZM14.2258 9.78462H17.7749C17.6783 9.567 17.6151 9.3364 17.5875 9.10043C17.5692 8.92177 17.4844 8.75615 17.3494 8.63563C17.2144 8.51512 17.0389 8.4483 16.8568 8.44812H15.144C14.9619 8.4483 14.7863 8.51512 14.6513 8.63563C14.5163 8.75615 14.4315 8.92177 14.4133 9.10043C14.3854 9.33644 14.3227 9.56704 14.2258 9.78462ZM14.9661 20.7658V14.5943C14.9661 14.4021 14.8886 14.2177 14.7508 14.0818C14.6129 13.9459 14.4259 13.8695 14.231 13.8695C14.036 13.8695 13.849 13.9459 13.7112 14.0818C13.5733 14.2177 13.4959 14.4021 13.4959 14.5943V20.7687C13.4959 20.9609 13.5733 21.1453 13.7112 21.2812C13.849 21.4171 14.036 21.4935 14.231 21.4935C14.4259 21.4935 14.6129 21.4171 14.7508 21.2812C14.8886 21.1453 14.9661 20.9609 14.9661 20.7687V20.7658ZM18.5049 20.7658V14.5943C18.5049 14.4021 18.4274 14.2177 18.2895 14.0818C18.1517 13.9459 17.9647 13.8695 17.7698 13.8695C17.5748 13.8695 17.3878 13.9459 17.25 14.0818C17.1121 14.2177 17.0347 14.4021 17.0347 14.5943V20.7687C17.0347 20.9609 17.1121 21.1453 17.25 21.2812C17.3878 21.4171 17.5748 21.4935 17.7698 21.4935C17.9647 21.4935 18.1517 21.4171 18.2895 21.2812C18.4274 21.1453 18.5049 20.9609 18.5049 20.7687V20.7658Z" fill="#FCFAFF"/>
</g>
</svg>
