<svg width="31" height="30" viewBox="0 0 31 30" fill="none" xmlns="http://www.w3.org/2000/svg">
<g id="Layer_1">
<path id="Vector" d="M25.7469 13.1667H18.3333V5.75312C18.3333 4.7849 17.5141 4 16.5 4C15.4859 4 14.6667 4.7849 14.6667 5.75312V13.1667H7.25312C6.2849 13.1667 5.5 13.9859 5.5 15C5.5 16.0141 6.2849 16.8333 7.25312 16.8333H14.6667V24.2469C14.6667 25.2151 15.4859 26 16.5 26C17.5141 26 18.3333 25.2151 18.3333 24.2469V16.8333H25.7469C26.7151 16.8333 27.5 16.0141 27.5 15C27.5 13.9859 26.7151 13.1667 25.7469 13.1667Z" fill="#7355A8"/>
</g>
</svg>
