<svg width="48" height="48" viewBox="0 0 48 48" fill="none" xmlns="http://www.w3.org/2000/svg">
<g id="Layer_1">
<g id="Group">
<g id="Group_2">
<g id="Group 116">
<g id="Group_3">
<path id="Vector" d="M36.8467 37.9544H11.1095C6.85129 37.9544 3.39209 34.4952 3.39209 30.237C3.39209 26.7778 5.68569 23.7792 8.95689 22.8392C9.73709 20.7242 11.5607 19.192 13.7509 18.7784C14.3337 13.6554 18.6953 9.6604 23.9781 9.6604C28.1799 9.6604 31.9681 12.2642 33.5191 16.1088C38.0405 16.372 41.6689 19.991 41.9697 24.503C43.6241 25.9694 44.5641 28.028 44.5641 30.2464C44.5641 34.4858 41.1049 37.9544 36.8467 37.9544ZM14.9729 21.2224C13.1775 21.2224 11.6359 22.4444 11.2223 24.2022L11.0343 25.0294L10.1977 25.1798C7.74429 25.6216 5.96769 27.746 5.96769 30.2276C5.96769 33.0664 8.28009 35.3788 11.1189 35.3788H36.8561C39.6949 35.3788 42.0073 33.0664 42.0073 30.2276C42.0073 28.6202 41.2553 27.1256 39.9487 26.1386L39.4411 25.7532V25.0106C39.4411 21.5326 36.5553 18.6468 33.0021 18.6468L31.6861 18.7126L31.3947 17.7444C30.4359 14.492 27.3903 12.2172 23.9969 12.2172C19.7387 12.2172 16.2795 15.6764 16.2795 19.9346V21.2224H14.9729Z" fill="#7355A8"/>
</g>
<path id="Vector_2" d="M25.2668 21.7786H22.6912V32.8048H25.2668V21.7786Z" fill="#7355A8"/>
</g>
</g>
<g id="Group_4">
<path id="Vector_3" d="M28.2227 27.2892L23.9833 23.0498L19.7439 27.2892L17.9297 25.4656L23.9833 19.412L30.0369 25.4656L28.2227 27.2892Z" fill="#7355A8"/>
</g>
</g>
</g>
</svg>
