<svg width="24" height="25" viewBox="0 0 24 25" fill="none" xmlns="http://www.w3.org/2000/svg">
<g id="whatsapp">
<path id="Vector" d="M16.6 14.0469C16.4 13.9468 15.1 13.3469 14.9 13.2469C14.7 13.1468 14.5 13.1469 14.3 13.3469C14.1 13.5469 13.7 14.1469 13.5 14.3469C13.4 14.5469 13.2 14.5469 13 14.4468C12.3 14.1468 11.6 13.7469 11 13.2469C10.5 12.7469 10 12.1469 9.6 11.5469C9.5 11.3469 9.6 11.1469 9.7 11.0469C9.8 10.9468 9.9 10.7469 10.1 10.6469C10.2 10.5469 10.3 10.3469 10.3 10.2469C10.4 10.1468 10.4 9.94685 10.3 9.84685C10.2 9.74685 9.7 8.54685 9.5 8.04685C9.4 7.34685 9.2 7.34685 9 7.34685H8.5C8.3 7.34685 8 7.54685 7.9 7.64685C7.3 8.24685 7 8.94685 7 9.74685C7.1 10.6469 7.4 11.5469 8 12.3469C9.1 13.9469 10.5 15.2469 12.2 16.0469C12.7 16.2469 13.1 16.4468 13.6 16.5469C14.1 16.7469 14.6 16.7469 15.2 16.6469C15.9 16.5469 16.5 16.0469 16.9 15.4468C17.1 15.0469 17.1 14.6468 17 14.2469L16.6 14.0469ZM19.1 4.94685C15.2 1.04685 8.9 1.04685 5 4.94685C1.8 8.14685 1.2 13.0469 3.4 16.9468L2 22.0469L7.3 20.6469C8.8 21.4468 10.4 21.8468 12 21.8468C17.5 21.8468 21.9 17.4468 21.9 11.9468C22 9.34685 20.9 6.84685 19.1 4.94685ZM16.4 18.9468C15.1 19.7468 13.6 20.2469 12 20.2469C10.5 20.2469 9.1 19.8469 7.8 19.1469L7.5 18.9468L4.4 19.7469L5.2 16.7469L5 16.4468C2.6 12.4468 3.8 7.44685 7.7 4.94685C11.6 2.44685 16.6 3.74685 19 7.54685C21.4 11.4469 20.3 16.5469 16.4 18.9468Z" fill="white"/>
</g>
</svg>
